# xmcd
# 
# Track frame offsets:
#     183
#     13258
#     23395
#     36533
#     46495
#     57995
#     70158
#     82220
#     99095
#     110133
#     122945
#     133933
#     147795
#     159245
#     169733
#     185120
#     199658
#     213920
#     234045
#     246933
# 
# Disc length: 3466
# 
# Revision: 2
# Processed by: cddbd v1.5.2PL0 Copyright (c) Steve Scherf et al.
# Submitted via: fre:ac v1.0.17
# 
DISCID=1e0d8814
DTITLE=Various Artist - World Of The Blues
DYEAR=0
DGENRE=Blues
TTITLE0=Muddy Waters - Mannish Boy
TTITLE1=Howlin' Wolf - Smokestack Lightning
TTITLE2=Elmore James - Dust My Broom
TTITLE3=John Lee Hooker - Dimples
TTITLE4=Sonny Boy Williamson - Born Blind
TTITLE5=Little Milton - Grits Ain't Groceries (All Around The World)
TTITLE6=Little Walter - My Babe
TTITLE7=Mitty Collier - I Had A Talk With My Man
TTITLE8=Lowell Fulson - Rock 'Em Dead
TTITLE9=Muddy Waters - I'm Your Hoochie Coochie Man
TTITLE10=Howlin' Wolf - The Red Rooster
TTITLE11=Elmore James - It Hurts Me Too
TTITLE12=John Lee Hooker - Boom Boom
TTITLE13=Sonny Boy Williamson - Let Your Conscience Be Your Guide
TTITLE14=Little Milton - Blind Man
TTITLE15=Little Walter - Sad Hours
TTITLE16=Billie Holiday - God Bless The Child
TTITLE17=Lowell Fulson - I Want To Know
TTITLE18=Muddy Waters - I Just Want To Make Love To You
TTITLE19=John Lee Hooker - I'm So Excited
EXTD=
EXTT0=
EXTT1=
EXTT2=
EXTT3=
EXTT4=
EXTT5=
EXTT6=
EXTT7=
EXTT8=
EXTT9=
EXTT10=
EXTT11=
EXTT12=
EXTT13=
EXTT14=
EXTT15=
EXTT16=
EXTT17=
EXTT18=
EXTT19=
PLAYORDER=
